<?xml version="1.0" encoding="UTF-8"?>
<svg width="381px" height="63px" viewBox="0 0 381 63" version="1.1" xmlns="http://www.w3.org/2000/svg" xmlns:xlink="http://www.w3.org/1999/xlink">
    <title>Group 4 Copy</title>
    <g id="brand-design" stroke="none" stroke-width="1" fill="none" fill-rule="evenodd">
        <g id="Artboard" transform="translate(-7.000000, -40.000000)">
            <g id="Group-4-Copy" transform="translate(7.000000, 40.000000)">
                <text id="الأرشيف-الإلكتروني" font-family="CoconNextArabic-Light, Cocon Next Arabic" font-size="48" font-weight="300" fill="#000000">
                    <tspan x="0" y="46">الأرشيف الإلكتروني</tspan>
                </text>
                <g id="Group-3" transform="translate(337.000000, 0.000000)">
                    <rect id="Rectangle" fill="#286CEE" x="26.1961536" y="0" width="2" height="63"></rect>
                    <path d="M11.3935514,6 L28.1961536,6 L28.1961536,57 L3.1961536,57 C1.53929935,57 0.196153601,55.6568542 0.196153601,54 L0.196153601,17.0833508 L0.196153601,17.0833508 L11.3935514,6 Z" id="Rectangle" fill="#286CEE"></path>
                    <rect id="Rectangle" fill="#286CEE" x="30.1961536" y="6" width="3.5" height="51"></rect>
                    <rect id="Rectangle-Copy-5" fill="#286CEE" x="36.1961536" y="6" width="2.4" height="51"></rect>
                    <path d="M41.1961536,7 C42.3007231,7 43.1961536,7.8954305 43.1961536,9 L43.1961536,54 C43.1961536,55.1045695 42.3007231,56 41.1961536,56 L41.1961536,56 L41.1961536,56 L41.1961536,7 Z" id="Rectangle-Copy-6" fill="#286CEE"></path>
                    <polygon id="Triangle" fill="#AECFF0" transform="translate(8.485281, 14.499355) scale(1, -1) rotate(45.000000) translate(-8.485281, -14.499355) " points="8.48528137 10.4993548 16.4852814 18.4993548 0.485281374 18.4993548"></polygon>
                    <g id="Group-2" transform="translate(7.196154, 31.000000)" fill="#B2D2F0">
                        <rect id="Rectangle" x="4" y="0" width="11" height="2"></rect>
                        <rect id="Rectangle-Copy-2" x="7" y="12" width="8" height="2"></rect>
                        <rect id="Rectangle-Copy" x="0" y="6" width="15" height="2"></rect>
                    </g>
                    <g id="Group" transform="translate(14.196154, 16.000000)" fill="#B2D2F0">
                        <rect id="Rectangle-Copy-3" x="0" y="2.90909091" width="8" height="2.18181818"></rect>
                        <polygon id="Rectangle-Copy-4" transform="translate(4.000000, 4.000000) rotate(90.000000) translate(-4.000000, -4.000000) " points="2.02816408e-13 2.90909091 8 2.90909091 8 5.09090909 2.02816408e-13 5.09090909"></polygon>
                    </g>
                </g>
            </g>
        </g>
    </g>
</svg>